<?xml version="1.0" standalone="no"?>
<!DOCTYPE svg PUBLIC "-//W3C//DTD SVG 20010904//EN"
 "http://www.w3.org/TR/2001/REC-SVG-20010904/DTD/svg10.dtd">
<svg version="1.0" xmlns="http://www.w3.org/2000/svg"
 width="836.000000pt" height="669.000000pt" viewBox="0 0 836.000000 669.000000"
 preserveAspectRatio="xMidYMid meet">

<g transform="translate(0.000000,669.000000) scale(0.100000,-0.100000)"
fill="#000000" stroke="none">
<path d="M5455 5839 c-294 -25 -553 -92 -850 -219 -197 -84 -385 -196 -577
-344 l-78 -59 0 -1294 c0 -711 3 -1293 8 -1293 12 0 100 35 108 43 4 4 14 7
21 7 42 0 730 320 883 410 54 32 87 51 154 89 167 95 471 303 562 386 6 5 41
34 78 64 l66 55 0 1082 0 1082 -142 0 c-79 0 -183 -4 -233 -9z"/>
<path d="M5940 4817 l0 -1020 20 18 c12 11 45 51 75 90 l55 71 0 502 0 502 73
0 c86 0 298 -24 398 -45 141 -30 276 -100 350 -182 120 -132 131 -334 32 -552
-79 -173 -168 -299 -349 -496 -101 -109 -282 -278 -400 -371 -21 -17 -64 -51
-94 -75 -57 -46 -144 -110 -195 -145 -211 -145 -380 -256 -425 -281 -30 -16
-93 -53 -140 -80 -186 -111 -308 -177 -540 -294 -48 -25 -29 -24 26 1 25 12
105 47 179 80 363 159 810 381 1135 566 47 26 99 55 115 64 36 19 169 98 240
142 57 35 394 257 410 270 5 4 25 20 44 35 18 15 86 66 150 115 458 347 751
723 751 965 0 129 -83 241 -231 313 -46 22 -91 40 -102 40 -10 0 -27 5 -38 10
-41 23 -234 49 -400 56 -234 9 -604 -18 -881 -64 l-108 -18 0 392 0 393 -42 5
c-24 3 -58 7 -75 9 l-33 4 0 -1020z"/>
<path d="M3174 5170 c-193 -36 -335 -77 -456 -134 l-78 -36 -2 -581 -3 -581
-150 -78 c-120 -62 -350 -189 -435 -240 -391 -236 -663 -415 -817 -537 -60
-49 -123 -98 -140 -111 -168 -127 -352 -312 -471 -472 -166 -224 -210 -363
-164 -516 17 -56 30 -78 69 -115 110 -106 210 -147 448 -185 127 -20 512 -30
633 -16 53 7 160 19 237 27 213 24 621 100 959 179 101 24 159 45 91 34 -221
-38 -303 -48 -433 -57 -318 -22 -572 -9 -727 39 -296 92 -425 252 -394 490 30
227 164 449 457 755 97 101 318 295 442 388 52 39 97 74 100 78 3 4 70 50 150
104 l145 98 3 -677 c1 -372 5 -676 10 -676 72 2 332 24 410 35 142 21 411 87
635 156 l97 30 0 1292 0 1293 -77 14 c-131 22 -420 22 -539 0z"/>
<path d="M6003 2847 l-62 -32 0 -472 -1 -471 -207 0 c-202 1 -418 -18 -500
-43 -17 -6 -44 -12 -59 -15 -83 -15 -331 -91 -428 -130 -267 -109 -579 -308
-777 -493 l-77 -71 -93 24 c-298 78 -727 47 -994 -70 -16 -7 -60 -26 -97 -43
l-68 -30 0 -75 c0 -42 2 -76 5 -76 3 0 34 14 68 31 75 38 200 82 322 112 79
19 117 22 315 22 246 0 291 -6 463 -66 48 -17 94 -29 102 -27 7 2 60 48 117
103 57 55 121 115 143 133 49 41 301 222 309 222 3 0 45 22 92 50 241 138 628
263 899 289 142 15 394 18 518 8 l97 -8 0 580 c0 459 -3 581 -12 580 -7 0 -41
-15 -75 -32z"/>
<path d="M5630 2657 c-102 -51 -212 -104 -245 -119 -85 -38 -198 -90 -280
-128 -38 -18 -104 -46 -145 -62 -41 -17 -108 -46 -147 -64 -40 -18 -126 -54
-190 -79 -65 -25 -152 -60 -193 -77 -386 -158 -1037 -365 -1560 -497 l-225
-56 -3 -223 c-1 -129 1 -222 7 -222 5 0 42 14 82 31 238 102 450 142 734 140
112 -1 195 -8 277 -22 l118 -21 76 64 c218 180 356 268 601 384 136 64 131 63
241 103 285 105 657 168 944 159 l103 -3 3 393 c1 215 -1 392 -5 391 -5 0 -91
-42 -193 -92z"/>
<path d="M2938 1813 c7 -3 16 -2 19 1 4 3 -2 6 -13 5 -11 0 -14 -3 -6 -6z"/>
</g>
</svg>
